<?xml version="1.0" encoding="UTF-8" standalone="no"?>
<!-- Creator: CorelDRAW -->

<svg
   xml:space="preserve"
   x="-311.78342"
   y="269.32858"
   width="548.099"
   height="602.99396"
   style="image-rendering:optimizeQuality;shape-rendering:geometricPrecision;text-rendering:geometricPrecision"
   viewBox="-3464 0 6209.781 6856.0413"
   id="svg1356"
   sodipodi:version="0.32"
   inkscape:version="1.3.2 (091e20e, 2023-11-25)"
   sodipodi:docname="levhita.svg"
   inkscape:export-filename="D:\Articulos\Tema\levhita100.png"
   inkscape:export-xdpi="16.17"
   inkscape:export-ydpi="16.17"
   version="1.0"
   xmlns:inkscape="http://www.inkscape.org/namespaces/inkscape"
   xmlns:sodipodi="http://sodipodi.sourceforge.net/DTD/sodipodi-0.dtd"
   xmlns="http://www.w3.org/2000/svg"
   xmlns:svg="http://www.w3.org/2000/svg"
   xmlns:rdf="http://www.w3.org/1999/02/22-rdf-syntax-ns#"
   xmlns:cc="http://creativecommons.org/ns#"
   xmlns:dc="http://purl.org/dc/elements/1.1/"><metadata
   id="metadata1371"><rdf:RDF><cc:Work
       rdf:about=""><dc:format>image/svg+xml</dc:format><dc:type
         rdf:resource="http://purl.org/dc/dcmitype/StillImage" /></cc:Work></rdf:RDF></metadata><sodipodi:namedview
   inkscape:window-height="847"
   inkscape:window-width="1392"
   inkscape:pageshadow="2"
   inkscape:pageopacity="0.0"
   borderopacity="1.0"
   bordercolor="#666666"
   pagecolor="#ffffff"
   id="base"
   inkscape:zoom="0.21259391"
   inkscape:cx="397.4714"
   inkscape:cy="230.48637"
   inkscape:window-x="0"
   inkscape:window-y="25"
   inkscape:current-layer="svg1356"
   showgrid="false"
   inkscape:window-maximized="0"
   inkscape:showpageshadow="2"
   inkscape:pagecheckerboard="0"
   inkscape:deskcolor="#d1d1d1" />
 <defs
   id="defs1358"><inkscape:perspective
     sodipodi:type="inkscape:persp3d"
     inkscape:vp_x="0 : 334.0413 : 1"
     inkscape:vp_y="0 : 1000 : 0"
     inkscape:vp_z="546 : 334.0413 : 1"
     inkscape:persp3d-origin="273 : 234.0413 : 1"
     id="perspective14" /></defs>
 <g
   id="Capa 1"
   transform="matrix(0.97519395,0,0,0.97526568,2.6674737,102.11082)">
  <g
   id="g9"
   style="stroke:#ffffff;stroke-width:208.423;stroke-dasharray:none;image-rendering:optimizeQuality;shape-rendering:geometricPrecision;text-rendering:geometricPrecision"
   transform="translate(-3.9047847e-5)"><path
     id="ellipse1"
     style="fill:#364152;fill-opacity:1;stroke:#ffffff;stroke-width:208.423;stroke-dasharray:none"
     class="fil0 str0"
     d="M -367.31296,-0.48901552 C -576.32878,0.67218354 -739.31905,159.0887 -823.23117,320.37435 l -0.1138,0.20483 -0.091,0.20484 c -51.99877,101.99764 -62.12715,211.33526 -78.58853,308.39116 -6.68015,7.08826 -12.44321,14.59468 -17.72965,22.30431 -3.503,-0.72637 -6.67834,-0.49776 -9.24035,1.52488 -119.9999,97.9999 -54.99989,403.99093 -15.99993,426.99093 5.38347,3.2769 11.1228,6.1079 17.0241,8.7396 0.86318,1.8058 1.44481,3.6634 2.34423,5.4623 13.82509,27.6503 32.0019,46.4885 40.23879,53.3938 8.23699,6.9052 5.00006,1.617 14.86195,19.3683 18.32331,32.9821 40.77214,71.2366 51.84613,102.4632 5.53699,15.6133 7.88797,29.0044 7.71547,36.8477 -0.1724,7.8432 -1.00713,9.022 -3.52772,11.8577 l -0.0455,0.068 -0.0683,0.068 c -42.77206,48.4213 -88.20058,62.0052 -177.11439,88.3069 -88.50123,26.1795 -211.74653,62.4187 -380.81193,155.5839 -134.1886,56.1721 -220.0195,149.326 -235.4014,257.0002 l -0.023,0.091 -0.023,0.068 c -98.9886,708.9183 -163.3836,1156.4508 -170.7645,1495.8451 -6.723,309.1418 36.3311,530.5178 143.1573,764.628 -154.7435,29.6082 -273.848,100.4516 -362.3084,183.6236 -231.9671,138.5133 -314.0179,356.9611 -266.1041,546.592 45.1111,177.0397 316.4163,322.8254 523.9919,385.3638 54.1028,29.924 113.1135,53.5926 179.2765,67.8916 l 0.1138,0.023 h 0.1138 c 260.7612,55.2814 531.1051,31.9911 785.45302,-5.3485 l 0.0228,-0.023 c 97.3612,-14.0839 178.41908,-62.889 253.2449,-103.0095 74.83353,-40.1246 141.85957,-70.9971 207.4528,-69.4165 h 0.0228 0.0455 c 376.345054,8.5318 756.18284,240.4695 1174.93618,211.8909 239.6717,-15.7023 437.3259,-189.8167 590.0854,-346.6498 52.5621,-53.9638 72.4957,-129.2236 86.304,-203.3106 13.8083,-74.0869 18.836,-149.0061 24.1251,-198.5311 v -0.023 -0.023 c 7.3327,-69.3547 -11.3422,-135.5083 -49.684,-189.7687 -38.3416,-54.2604 -94.409,-97.5124 -162.5483,-133.143 -119.8836,-62.687 -279.0681,-103.0969 -463.49681,-126.496 C 1101.837,3586.9121 1023.248,2840.1518 1000.4417,2253.839 993.16674,2066.769 957.96035,1836.708 817.25049,1720.9026 l -0.0228,-0.023 c -88.31054,-72.561 -217.9499,-131.9042 -349.95,-197.78 -132.00017,-65.8758 -265.50398,-137.2889 -353.7736,-218.2408 l -0.0455,-0.045 -0.0683,-0.046 c -19.057785,-17.3859 -22.605851,-27.4543 -22.167751,-47.4308 0.430399,-19.6176 9.912561,-50.7223 31.385341,-90.651 3.818,-1.1185 14.32682,-3.1456 30.6798,-8.6714 17.72688,-5.9901 41.25146,-18.4749 59.42504,-39.9201 18.17359,-21.4453 31.01746,-49.4172 40.14775,-85.644 v -0.068 l 0.0228,-0.045 c 22.52788,-90.11139 34.68088,-171.95627 5.89471,-343.64564 l -0.11379,-0.59175 -0.1138,-0.6145 c -2.7575,-14.47662 -7.17208,-32.58514 -17.54757,-52.50616 -5.1878,-9.96051 -11.79577,-20.69727 -23.73816,-31.15775 -11.71238,-10.25908 -31.32607,-19.92626 -52.50615,-19.36833 -2.0428,0.0301 -3.95735,0.20425 -5.87195,0.36415 C 143.21738,497.41973 108.99121,405.52127 79.842841,338.78678 l -0.09104,-0.22759 -0.113797,-0.2276 C -6.852538,145.04906 -161.3002,-0.48901552 -366.99433,-0.48901552 h -0.15932 z M -371,5672.998 A 3091,574 0 0 0 -3461.9898,6246.9924 3091,574 0 0 0 -371,6821.0097 3091,574 0 0 0 2719.9898,6246.9924 3091,574 0 0 0 -371,5672.998 Z" /></g><ellipse
   id="37647072"
   class="fil0 str0"
   cx="-371"
   cy="6247"
   rx="3091"
   ry="574"
   style="fill:#364152;fill-opacity:1;stroke:#000000;stroke-width:3" /><path
   id="path1"
   class="fil1 str1"
   d="m -1553.0001,4124 c -256,-509 -198,-879 0,-2297 12,-84 81,-164 205,-215 331.4174,-183.2104 469.00003,-137 574.99993,-257 48.00003,-54 -14,-152 -49,-215 -25,-45 -30.9739,-24.6278 -53.9738,-70.6278 -40,-80.00003 -38,-177.00003 -32,-266.00003 4,-53 18,-115 58.9999,-148 26,-20 -13.0261,56.62783 -6.0261,24.62783 23,-112 29,-232 81,-334 77.00003,-148 227.00006,-290 407.00009,-291 180,0 315.000031,125 396.000031,306 38,87 84.999929,229 82.999929,318 0,26 28.0452,-39.11652 54.0452,-39.11652 22,-1 34,37 38,58 28,167 17,233 -5,321.00002 -31,123 -97.0452,68.1165 -124.045199,119.1165 -48.99993,90 -55.99993,155.767 1,207.767 192.999999,177 549.000059,289 705.999989,418 113,93 156,312.233 163,492.233 24,617 102.00003,1403 -142,1890 426.00003,42 727.00003,170 703.00003,397 -11,103 -20,292 -95,369 -150,154 -340,316 -554.00003,330 -394.99996,27 -772.999989,-203 -1169.99995,-212 -166.00003,-4 -304.00003,149 -470.00009,173 -251.99993,37 -515.99993,59 -765.99993,6 -273,-59 -423,-288 -595,-508 -44,-57 94,-530 591,-577 z"
   style="fill:#ffffff;stroke:none;stroke-width:111;image-rendering:optimizeQuality;shape-rendering:geometricPrecision;text-rendering:geometricPrecision"
   inkscape:connector-curvature="0"
   sodipodi:nodetypes="ccccsscccccccccccccsccscccccc" />
  <path
   style="color:#000000;fill:#364152;fill-opacity:1;stroke:#ff4141;-inkscape-stroke:none;shape-rendering:auto"
   d="m -367.30808,-0.5 c -209.01603,1.16120022 -372.01556,159.59896 -455.92776,320.88477 l -0.1055,0.20312 -0.1035,0.20508 c -51.99883,101.99774 -62.12263,211.32095 -78.58403,308.37695 -46.8313,49.69241 -57.2784,116.90958 -61.2871,170.02539 l -0.018,0.22266 -0.016,0.2207 c -6.1263,90.87425 -10.6217,197.84239 37.7344,294.55473 13.8251,27.6503 31.9857,46.4951 40.2226,53.4004 8.237,6.9052 5.0151,1.608 14.877,19.3593 18.32333,32.9821 40.75803,71.246 51.83203,102.4727 5.537,15.6133 7.8854,28.9946 7.7129,36.8379 -0.1724,7.8432 -0.9911,9.0276 -3.5117,11.8633 l -0.057,0.064 -0.057,0.066 c -42.7721,48.4213 -88.20333,62.0167 -177.11723,88.3184 -88.50123,26.1796 -211.74303,62.4245 -380.80863,155.5898 -134.1887,56.1722 -220.0398,149.3101 -235.4218,256.9844 l -0.012,0.088 -0.012,0.086 c -98.9887,708.919 -163.3906,1156.4492 -170.7715,1495.8438 -6.723,309.1421 36.3378,530.5107 143.1641,764.6211 -222.4115,42.5556 -372.7547,169.6436 -461.3906,297.3086 -49.2776,70.9758 -80.3465,141.93 -96.6797,201.6718 -8.1666,29.8709 -12.746,56.8205 -13.4551,81.3985 -0.7091,24.578 -1.9651,47.3717 19.166,74.7461 l 0.1035,0.1347 0.1055,0.1348 c 170.1331,217.6121 329.1205,463.6876 627,528.0644 l 0.1074,0.024 0.1075,0.021 c 260.7614,55.2814 531.103,31.9763 785.45116,-5.3633 0.01,0 0.019,0 0.029,-0.01 97.3613,-14.0839 178.42803,-62.8912 253.25393,-103.0117 74.8336,-40.1246 141.84423,-71.0083 207.43753,-69.4277 h 0.039 0.041 c 376.345429,8.5318 756.17799,240.4693 1174.93175,211.8907 239.67193,-15.7024 437.32243,-189.8191 590.08213,-346.6524 52.5621,-53.9638 72.4963,-129.2176 86.3047,-203.3047 13.8083,-74.087 18.8359,-149.0004 24.125,-198.5254 v -0.029 -0.029 c 7.3327,-69.3548 -11.3379,-135.4954 -49.6797,-189.7558 -38.3417,-54.2605 -94.4055,-97.5061 -162.5449,-133.1367 -119.884,-62.6884 -279.073,-103.1029 -463.50193,-126.502 216.37653,-512.5176 137.79853,-1259.2842 114.99213,-1845.5976 -7.27493,-187.0702 -42.47943,-417.1242 -183.18943,-532.9297 l -0.018,-0.014 -0.018,-0.016 C 728.91344,1648.317 599.27314,1588.9766 467.27291,1523.1007 335.27261,1457.2249 201.77298,1385.8086 113.50328,1304.8566 l -0.055,-0.049 -0.053,-0.049 c -19.057801,-17.386 -22.606101,-27.4375 -22.168001,-47.414 0.4304,-19.6177 9.915901,-50.7373 31.388701,-90.6661 3.818,-1.1185 14.3111,-3.1382 30.6641,-8.664 17.7269,-5.9901 41.26,-18.4805 59.4336,-39.9258 18.1736,-21.4453 31.0083,-49.4215 40.1386,-85.6484 l 0.014,-0.051 0.012,-0.053 c 22.5279,-90.11146 34.6808,-171.94723 5.8946,-343.63677 l -0.1016,-0.60547 -0.1152,-0.60351 c -2.7575,-14.47663 -7.1714,-32.58092 -17.5469,-52.50196 -5.1878,-9.96052 -11.8057,-20.71333 -23.7481,-31.17382 -11.7124,-10.25909 -31.3277,-19.91926 -52.5078,-19.36133 -2.0428,0.0301 -3.9545,0.19361 -5.8691,0.35351 -15.6692,-87.39728 -49.8848,-179.29473 -79.033201,-246.02929 l -0.1,-0.22852 -0.1016,-0.22656 C -6.8412512,145.03986 -161.30515,-0.5 -366.99948,-0.5 h -0.1543 z m 0.4922,111.00391 c 154.142,0.0834 269.577229,104.43379 345.048829,272.93945 35.8357,82.11897 79.8114,226.21893 78.2813,294.31055 l -0.014,0.62304 V 679 c 0,4.1194 0.042,8.69719 1.6465,15.9043 1.6043,7.20711 4.2252,19.23869 18.78523,31.84179 14.5599,12.60311 40.259401,15.28941 52.935501,11.70313 12.6761,-3.58628 17.8161,-8.21041 21.7637,-11.39453 0.2707,-0.21841 0.3767,-0.34875 0.6386,-0.5625 22.9878,146.14822 13.477,196.74124 -7.0468,278.84371 -6.3685,25.2605 -13.4102,36.5457 -17.1817,40.9961 -3.7723,4.4515 -4.2508,4.4922 -10.2851,6.5313 -6.0344,2.039 -17.7284,3.5158 -35.921901,10.375 -18.17513,6.8522 -42.77793,24.1055 -55.84183,48.7226 -26.53480023,48.8232 -44.6703,94.7141 -45.7285,142.9551 -1.0615,48.3921 20.37649977,97.2064 58.2969,131.8184 104.722731,96.0152 245.687431,169.0827 379.156261,235.6914 133.49943,66.624 260.35983,127.7838 329.04883,184.2226 85.26893,70.2222 136.05133,278.6018 142.77543,451.5079 24.1104,619.8369 95.0026,1401.6003 -136.16213,1862.9824 l -36.1601,72.1738 80.33593,7.9199 c 208.79143,20.5851 385.25553,63.0856 499.97663,123.0742 57.3605,29.9943 98.6719,63.9364 123.33,98.8321 24.6582,34.8957 34.6127,69.8803 29.9454,114.0254 -5.7086,53.469 -10.6795,124.5243 -22.8672,189.916 -12.1917,65.4128 -34.2595,123.1592 -56.6973,146.1953 -147.2292,151.1553 -329.5605,301.0247 -517.86523,313.3437 h -0.082 l -0.08,0.01 c -371.18636,25.3722 -747.30489,-202.6277 -1164.90445,-212.1133 -100.39543,-2.4114 -185.37743,41.2005 -262.53713,82.5723 -77.16633,41.3753 -148.08963,81.0607 -216.71493,90.9824 l -0.061,0.01 -0.061,0.01 c -249.57146,36.6434 -507.13816,57.3196 -746.29886,6.6445 -245.3274,-53.0604 -386.0416,-260.9573 -557.2676,-480.6172 -0.4793,-1.4426 -1.6802,-5.109 -1.5176,-10.7441 0.3573,-12.3829 3.2233,-32.1054 9.5723,-55.3281 12.698,-46.4456 38.9417,-107.3667 80.7891,-167.6407 83.6947,-120.5479 226.4037,-239.246 458.0097,-261.1484 l 80.8438,-7.6465 -36.4864,-72.5449 c -124.8184,-248.1742 -171.4647,-454.1257 -164.3457,-781.4805 7.1186,-327.3304 70.7105,-773.7677 169.709,-1482.7558 8.4954,-59.3921 59.3629,-125.5153 171.1641,-171.4981 l 2.9512,-1.2129 2.791,-1.5429 c 161.1335,-89.076 271.6902,-121.161 360.92193,-147.5567 89.197,-26.3854 165.53463,-49.6799 228.74803,-121.1933 21.4484,-24.1576 30.8721,-55.4481 31.4805,-83.1172 0.6088,-27.688 -5.7324,-52.8692 -14.0703,-76.3809 -16.676,-47.0232 -42.7394,-89.2594 -59.4161,-119.2773 -15.1381,-27.2486 -33.8477,-44.859 -40.5976,-50.5176 -6.7499,-5.6586 -3.0772,0.373 -12.252,-17.9766 -31.6045,-63.20895 -32.1337,-150.10593 -26.2832,-237.12301 1.7749,-23.37994 6.5954,-46.80153 13.4063,-66.31055 19.2449,-5.17296 22.3527,-12.14336 25.9629,-15.91797 15.1358,-15.82515 14.769,-20.73316 19.0937,-30.45312 4.3248,-9.71997 10.4428,-14.14686 9.7012,-40.99805 -0.15,-5.43036 -0.6541,-12.98796 -5.0508,-22.65234 16.5089,-95.97008 27.826,-186.94205 64.8574,-259.69922 70.1025,-134.59421 206.97733,-259.98744 357.83016,-260.89453 z m 534.28526,567.20703 c 0,0.43065 0.031,1.05972 0.031,1.28906 l -0.016,1.24609 c 0.019,-0.83169 -0.028,-1.70007 -0.016,-2.53515 z m 16.8281,12.82812 c 0.088,0.0452 -0.4963,0.52543 -1.1387,1.03516 0.1842,-0.18205 0.6084,-0.67629 0.75,-0.80469 0.2055,-0.18632 0.3416,-0.25474 0.3887,-0.23047 z m -999.65832,9.15235 c -0.4139,0.572 -1.2388,2.24479 -4.0234,4.04882 1.3209,-1.49485 2.6597,-2.85133 4.0234,-4.04882 z m -1284.91606,3967.12499 0.2109,0.2695 c 0.017,0.022 0.016,0.023 0.033,0.045 -0.083,-0.106 -0.1613,-0.2086 -0.2441,-0.3145 z"
   id="path3" />
  <path
   id="37647248"
   class="fil0"
   d="m -737,4488 c 276,163 371,193 613,63 420,-227 495,7 798,-222 7,181 -303,102 -257,422 17,113 223,210 321,223 105,15 201,-76 287,-139 185,-134 413,-372 187,-607 484,144 268,573 246,616 -104,209 -294,334 -502,388 -219,57 -346,-14 -570,-44 -125,-16 -347,-78 -472,-95 -132,-17 -236,-81 -368,-34 -107,38 -184,117 -297,134 -298,42 -590,82 -887,28 -207,-37 -573,-203 -626,-411 -71,-281 142,-626 708,-679 -553,361 -23,734 145,685 228,-65 298,-245 -38,-639 318,269 464,165 712,311 z"
   style="fill:#364152;fill-opacity:1" />
  <path
   id="37647336"
   class="fil0"
   d="m -298,69 c -173,16 -254,89 -254,207 1,118 128,155 130,178 9,104 -46,206 -41,310 4,83 65,157 69,241 3,88 -110,207 -76,289 60,144 245,21 259,102 12,72 -193,37 -280,63 -106,31 -214,60 -316,103 -114,47 -221,108 -330,165 -75,39 -177,52 -221,124 -86,144 -89,323 -144,482 -51,147 -119,303 -172,433 34,-332 116,-1008 167,-1051 177,-153 419,-159 624,-277 51,-30 148,-80 131,-136 -15,-50 -34,-97 -56,-146 -22,-48 -91,-48 -137,-76 -39,-23 -104,-329 16,-427 19,-15 69,58 74,35 31,-144 17,-197 78,-338 64,-148 259,-326 479,-281 z"
   style="fill:#364152;fill-opacity:1" />
  <path
   id="37647424"
   class="fil0 str2"
   d="m -373,3901 c 2,9 17,14 14,22 -6,13 -30,32 -18,40 13,9 37,-11 39,-26 2,-21 -16,-39 -30,-53 -5,-5 -7,11 -5,17 z"
   style="fill:#000000;stroke:#000000;stroke-width:3;stroke-linejoin:round" />
  <path
   id="37647512"
   class="fil0"
   d="m -486,4289 c 84,-34 346,-87 246,130 -28,62 -82,140 -150,138 -54,-1 64,-88 80,-140 43,-136 -254,-97 -176,-128 z"
   style="fill:#000000" />
  <path
   id="37647600"
   class="fil0"
   d="m 502,3831 c -45,114 -87,182 -225,246 -58,27 -150,71 -292,103 -97,22 -224,-5 -318,-15 -43,-4 -148,36 -202,37 -236,1 -456,-29 -634,-287 -199,-287 -41,-715 -18,-982 19,-218 -35,-263 41,-468 6,-18 76,-33 73,13 -36,615 513,406 516,475 5,124 -343,-2 -394,151 -24,71 -7,246 -10,289 -8,117 102,228 30,401 -100,238 305,300 563,293 258,-7 603,-65 643,-220 21,-83 -41,-85 -41,-169 0,-84 38,-206 32,-359 -4,-93 -34,-218 -87,-295 -24,-36 -376,-24 -379,-83 -4,-85 486,65 523,-217 25,-184 -3,-295 52,-312 181,-57 39,245 64,513 24,268 108,775 63,886 z"
   style="fill:#364152;fill-opacity:1" />
 </g>
</svg>
