<?xml version="1.0" encoding="UTF-8" standalone="no"?>
<!-- Creator: CorelDRAW -->

<svg
   xml:space="preserve"
   x="-311.78342"
   y="269.32858"
   width="548.099"
   height="602.99396"
   style="image-rendering:optimizeQuality;shape-rendering:geometricPrecision;text-rendering:geometricPrecision"
   viewBox="-3464 0 6209.781 6856.0413"
   id="svg1356"
   sodipodi:version="0.32"
   inkscape:version="1.3.2 (091e20e, 2023-11-25)"
   sodipodi:docname="levhita.svg"
   inkscape:export-filename="D:\Articulos\Tema\levhita100.png"
   inkscape:export-xdpi="16.17"
   inkscape:export-ydpi="16.17"
   version="1.0"
   xmlns:inkscape="http://www.inkscape.org/namespaces/inkscape"
   xmlns:sodipodi="http://sodipodi.sourceforge.net/DTD/sodipodi-0.dtd"
   xmlns="http://www.w3.org/2000/svg"
   xmlns:svg="http://www.w3.org/2000/svg"
   xmlns:rdf="http://www.w3.org/1999/02/22-rdf-syntax-ns#"
   xmlns:cc="http://creativecommons.org/ns#"
   xmlns:dc="http://purl.org/dc/elements/1.1/"><metadata
   id="metadata1371"><rdf:RDF><cc:Work
       rdf:about=""><dc:format>image/svg+xml</dc:format><dc:type
         rdf:resource="http://purl.org/dc/dcmitype/StillImage" /></cc:Work></rdf:RDF></metadata><sodipodi:namedview
   inkscape:window-height="847"
   inkscape:window-width="1392"
   inkscape:pageshadow="2"
   inkscape:pageopacity="0.0"
   borderopacity="1.0"
   bordercolor="#666666"
   pagecolor="#ffffff"
   id="base"
   inkscape:zoom="0.85531085"
   inkscape:cx="283.52265"
   inkscape:cy="296.96806"
   inkscape:window-x="0"
   inkscape:window-y="25"
   inkscape:current-layer="svg1356"
   showgrid="false"
   inkscape:window-maximized="0"
   inkscape:showpageshadow="2"
   inkscape:pagecheckerboard="0"
   inkscape:deskcolor="#d1d1d1" />
 <defs
   id="defs1358"><inkscape:perspective
   sodipodi:type="inkscape:persp3d"
   inkscape:vp_x="0 : 334.0413 : 1"
   inkscape:vp_y="0 : 1000 : 0"
   inkscape:vp_z="546 : 334.0413 : 1"
   inkscape:persp3d-origin="273 : 234.0413 : 1"
   id="perspective14" />
  
  
  
  
  
  
  
 </defs>
 <ellipse
   id="37647072"
   class="fil0 str0"
   cx="-359.12949"
   cy="6194.5957"
   rx="3014.3245"
   ry="559.80249"
   style="fill:#364152;fill-opacity:1;stroke:#000000;stroke-width:2.92569" /><path
   id="path1"
   class="fil1 str1"
   d="m -1511.8088,4124.1065 c -249.6497,-496.4102 -193.0884,-857.2585 0,-2240.1853 11.7023,-81.9223 78.9907,-159.9436 199.9147,-209.6821 323.19627,-178.6788 457.36602,-133.6114 560.73648,-250.6433 46.80934,-52.6643 -13.65271,-148.2404 -47.7845,-209.6821 -24.37985,-43.887 -30.20556,-24.0187 -52.63492,-68.8809 -39.00776,-78.0213 -37.05737,-172.62203 -31.20621,-259.42067 3.90078,-51.68909 17.55349,-112.15556 57.53635,-144.33932 25.35504,-19.50532 -12.70298,55.22717 -5.87662,24.01867 22.42946,-109.22975 28.28063,-226.26164 78.99071,-325.73873 75.08996,-144.33933 221.36909,-282.82705 396.90403,-283.80232 175.53491,0 307.186121,121.90821 386.17683,298.4313 37.057371,84.84811 82.89142,223.33584 80.94103,310.13449 0,25.3569 27.34951,-38.149 52.70455,-38.149 21.45427,-0.97527 33.1566,36.08483 37.05737,56.56541 27.30543,162.86937 16.5783,227.23687 -4.87597,313.06027 -30.23101,119.9577 -94.63789,66.4317 -120.968126,116.1703 -47.784435,87.7739 -54.610793,151.9142 0.975194,202.628 188.212432,172.622 535.381532,281.8518 688.486922,407.661 110.19691,90.6998 152.13025,304.5102 158.95661,480.058 23.40465,601.7389 99.46977,1368.2977 -138.47754,1843.2521 415.43261,40.9612 708.96601,165.7952 685.56141,387.1805 -10.7272,100.4524 -19.5039,284.7776 -92.6435,359.873 -146.2791,150.191 -331.5659,308.184 -540.25744,321.8377 -385.20157,26.3322 -753.824911,-197.9789 -1140.97687,-206.7563 -161.88223,-3.9011 -296.45899,145.3146 -458.34124,168.721 -245.74885,36.0848 -503.20005,57.5406 -746.99855,5.8515 -266.2279,-57.5406 -412.507,-280.8765 -580.2404,-495.4349 -42.9085,-55.5902 91.6683,-516.8908 576.3397,-562.7283 z"
   style="fill:#ffffff;stroke:none;stroke-width:108.251;image-rendering:optimizeQuality;shape-rendering:geometricPrecision;text-rendering:geometricPrecision"
   inkscape:connector-curvature="0"
   sodipodi:nodetypes="ccccsscccccccccccccsccscccccc" /><path
   style="color:#000000;fill:#364152;fill-opacity:1;stroke:#ff4141;stroke-width:0.97523;-inkscape-stroke:none;shape-rendering:auto"
   d="m -355.52914,101.62319 c -203.83117,1.13248 -362.78733,155.65139 -444.618,312.9479 l -0.10288,0.1981 -0.10093,0.2 c -50.70895,99.4749 -60.58162,206.09407 -76.63467,300.74946 -45.6696,48.4633 -55.85755,114.0179 -59.76681,165.81993 l -0.0176,0.21715 -0.0156,0.21524 c -5.97433,88.62654 -10.35822,192.94893 36.79836,287.26913 13.48215,26.9664 31.19226,45.3451 39.22484,52.0796 8.03267,6.7344 4.89069,1.5682 14.50796,18.8804 17.8688,32.1663 39.74698,69.4838 50.54628,99.9381 5.39965,15.2272 7.68979,28.2775 7.52157,35.9268 -0.16812,7.6492 -0.96651,8.8043 -3.42459,11.5698 l -0.0556,0.062 -0.0556,0.064 c -41.71109,47.2237 -86.01535,60.4828 -172.72365,86.1339 -86.30594,25.5321 -206.49054,60.8805 -371.36234,151.7414 -130.86,54.7828 -214.5814,145.617 -229.5819,250.6281 l -0.012,0.086 -0.012,0.084 c -96.5332,691.3844 -159.3375,1127.8452 -166.5353,1458.8451 -6.5562,301.4957 35.4364,517.3889 139.6127,745.7087 -216.8943,41.503 -363.5081,165.4476 -449.9453,289.9549 -48.0552,69.2203 -78.3534,138.4195 -94.2814,196.6836 -7.9641,29.132 -12.4299,55.4151 -13.1214,79.3851 -0.6915,23.9701 -1.9163,46.2 18.6906,72.8974 l 0.1009,0.1313 0.1029,0.1315 c 165.9128,212.2296 320.9563,452.2186 611.4466,515.0031 l 0.1048,0.023 0.1048,0.02 c 254.2929,53.914 517.9284,31.1853 765.96724,-5.2307 0.01,0 0.0185,0 0.0283,-0.01 94.94616,-13.7356 174.00194,-61.3357 246.97171,-100.4638 72.97727,-39.1322 138.32563,-69.252 202.29182,-67.7105 h 0.038 0.04 c 367.009781,8.3208 737.4202,234.5215 1145.78633,206.6498 233.7266,-15.314 426.4742,-185.1241 575.4445,-338.0782 51.2582,-52.6291 70.6979,-126.0215 84.1638,-198.2761 13.4658,-72.2545 18.3687,-145.315 23.5266,-193.615 v -0.028 -0.028 c 7.1508,-67.6394 -11.0567,-132.144 -48.4474,-185.0623 -37.3906,-52.9184 -92.0636,-95.0944 -158.5128,-129.8437 -116.9101,-61.1378 -272.1503,-100.5527 -452.00423,-123.373 211.00903,-499.8409 134.38023,-1228.1367 112.13963,-1799.948 -7.09446,-182.4432 -41.42568,-406.8069 -178.64522,-519.7481 l -0.0176,-0.014 -0.0176,-0.016 c -86.11999,-70.7664 -212.54443,-128.639 -341.27025,-192.8855 -128.7259,-64.2464 -258.91393,-133.8963 -344.994,-212.846 l -0.0536,-0.048 -0.0517,-0.048 c -18.585048,-16.956 -22.045328,-26.7588 -21.618096,-46.2412 0.419724,-19.1325 9.669926,-49.4824 30.610076,-88.4236 3.72329,-1.0908 13.95609,-3.0606 29.90344,-8.4497 17.28717,-5.8419 40.2365,-18.0234 57.95929,-38.9382 17.72278,-20.9149 30.2391,-48.1991 39.14292,-83.53 l 0.0137,-0.05 0.0117,-0.052 c 21.96907,-87.8826 33.82051,-167.69425 5.74838,-335.13716 l -0.0991,-0.5905 -0.11234,-0.58858 c -2.6891,-14.11856 -6.99351,-31.77505 -17.11163,-51.20336 -5.05911,-9.71415 -11.51285,-20.201 -23.15901,-30.40276 -11.42186,-10.00534 -30.55058,-19.42657 -51.20528,-18.88244 -1.99213,0.0294 -3.85641,0.18882 -5.72352,0.34477 -15.2805,-85.23557 -48.64735,-174.86 -77.072695,-239.94393 l -0.09752,-0.22286 -0.09908,-0.22096 C -4.0040731,243.56322 -154.63633,101.62319 -355.2282,101.62319 h -0.15047 z m 0.47999,108.2583 c 150.31834,0.0813 262.89008,101.85069 336.489527,266.18848 34.946758,80.08781 77.831595,220.62356 76.33945,287.03098 l -0.01365,0.60763 v 0.60764 c 0,4.01751 0.04096,8.48207 1.605657,15.51091 1.564503,7.02885 4.120389,18.76284 18.319242,31.05421 14.198727,12.29138 39.260724,14.91124 51.622374,11.41366 12.36166,-3.49758 17.37416,-8.00733 21.22383,-11.11269 0.26399,-0.21301 0.36736,-0.34013 0.62276,-0.54859 22.41757,142.53334 13.14269,191.87498 -6.87199,271.94668 -6.21053,24.6357 -13.07755,35.6418 -16.75549,39.9821 -3.67873,4.3414 -4.14536,4.3811 -10.02997,6.3698 -5.88471,1.9885 -17.28863,3.4288 -35.030821,10.1183 -17.724276,6.6828 -41.716778,23.5093 -54.456614,47.5175 -25.8765769,47.6156 -43.562207,92.3714 -44.594157,139.4192 -1.035168,47.1952 19.8710395,94.8021 56.850784,128.558 102.124968,93.6403 239.592898,164.9005 369.750888,229.8617 130.18784,64.9761 253.90133,124.6232 320.88643,179.666 83.15375,68.4853 132.67643,271.7108 139.23374,440.3402 23.51231,604.5056 92.64596,1366.9326 -132.78449,1816.9028 l -35.26311,70.3886 78.34311,7.724 c 203.61214,20.0759 375.69885,61.5252 487.57415,120.03 55.9377,29.2524 96.2243,62.355 120.2707,96.3876 24.0465,34.0326 33.7541,68.1519 29.2026,111.2051 -5.567,52.1464 -10.4146,121.4442 -22.3,185.2185 -11.8892,63.7949 -33.4096,120.1129 -55.2908,142.5793 -143.5771,147.4165 -321.3854,293.579 -505.01908,305.5933 h -0.08 l -0.078,0.01 c -361.97869,24.7446 -728.76721,-197.6159 -1136.00777,-206.8668 -97.90502,-2.3518 -180.77895,40.1814 -256.02462,80.5299 -75.25214,40.3519 -144.41611,79.0557 -211.33909,88.732 l -0.0595,0.01 -0.0595,0.01 c -243.38054,35.7371 -494.55804,55.9018 -727.78604,6.4802 -239.2418,-51.748 -376.4655,-254.5027 -543.444,-468.7295 -0.4675,-1.4069 -1.6386,-4.9826 -1.48,-10.4784 0.3484,-12.0766 3.1433,-31.3113 9.3349,-53.9596 12.383,-45.2968 37.9757,-104.711 78.785,-163.4942 81.6186,-117.5662 220.7875,-233.3284 446.6483,-254.689 l 78.8384,-7.4574 -35.5813,-70.7506 c -121.7222,-242.0357 -167.2114,-442.8932 -160.269,-762.1511 6.942,-319.2341 68.9565,-754.6291 165.4992,-1446.0808 8.2847,-57.9231 57.8904,-122.4108 166.9182,-167.2562 l 2.878,-1.1829 2.7218,-1.5048 c 157.1364,-86.8727 264.9506,-118.1641 351.9688,-143.907 86.98437,-25.7327 161.42837,-48.4511 223.07369,-118.1956 20.91635,-23.5601 30.10629,-54.0767 30.69959,-81.0614 0.5937,-27.0031 -5.5902,-51.5615 -13.72127,-74.4916 -16.26233,-45.8602 -41.6792,-87.0517 -57.94222,-116.3271 -14.76258,-26.5746 -33.00807,-43.7494 -39.59053,-49.2681 -6.58246,-5.5186 -3.00087,0.3638 -11.94808,-17.5319 -30.82052,-61.6456 -31.33659,-146.39321 -25.63122,-231.25798 1.73088,-22.80165 6.4318,-45.64392 13.07375,-64.6704 18.76751,-5.04501 21.79821,-11.843 25.31886,-15.52425 14.76034,-15.43373 14.40264,-20.22034 18.62006,-29.69988 4.21752,-9.47956 10.18376,-13.79695 9.46055,-39.984 -0.14628,-5.29604 -0.63787,-12.66671 -4.92551,-22.09205 16.09938,-93.59632 27.13575,-182.31816 63.24855,-253.27573 68.36353,-131.26512 201.84304,-253.55683 348.9538,-254.44148 z M 165.9826,763.05904 c 0,0.42 0.0302,1.03351 0.0302,1.25718 l -0.0156,1.21527 c 0.0185,-0.81112 -0.0273,-1.65802 -0.0156,-2.47245 z m 16.41066,12.51083 c 0.0858,0.0441 -0.48399,0.51243 -1.11045,1.00955 0.17963,-0.17755 0.59331,-0.65956 0.73139,-0.78478 0.20041,-0.18172 0.33313,-0.24844 0.37906,-0.22477 z m -974.86074,8.92597 c -0.40364,0.55785 -1.20807,2.18927 -3.9236,3.94867 1.28813,-1.45787 2.59372,-2.7808 3.9236,-3.94867 z m -1253.04242,3869.00086 0.2057,0.2628 c 0.017,0.021 0.016,0.023 0.032,0.044 -0.081,-0.1034 -0.1573,-0.2034 -0.238,-0.3067 z"
   id="path3" /><path
   id="37647248"
   class="fil0"
   d="m -716.05047,4479.1032 c 269.15353,158.9683 361.79696,188.2263 597.79389,61.4417 409.58146,-221.3853 482.72101,6.8269 778.20478,-216.509 6.82635,176.5231 -295.48377,99.4771 -250.62485,411.5622 16.5783,110.205 217.46825,204.8058 313.03726,217.4842 102.39536,14.629 196.01398,-74.1202 279.88069,-135.5619 180.4109,-130.6856 402.7551,-362.7989 182.3612,-591.9863 471.9939,140.4383 261.352,558.8272 239.8978,600.7637 -101.4202,203.8305 -286.7071,325.7387 -489.54741,378.4031 -213.56748,55.5901 -337.41711,-13.6538 -555.86055,-42.9117 -121.89925,-15.6043 -338.392302,-76.0708 -460.291546,-92.6503 -128.725604,-16.5795 -230.145774,-78.9965 -358.871374,-33.159 -104.34575,37.0601 -179.43569,114.1061 -289.6326,130.6856 -290.60782,40.9612 -575.36442,79.9718 -864.99702,27.3074 -201.8652,-36.0848 -558.7861,-197.9789 -610.4714,-400.8342 -69.2388,-274.0496 138.4775,-610.5163 690.4373,-662.2054 -539.2823,352.071 -22.4295,715.8451 141.4031,668.057 222.3442,-63.3922 290.6078,-238.9401 -37.0574,-623.1947 310.1117,262.3464 452.49003,160.9188 694.33813,303.3076 z"
   style="fill:#364152;fill-opacity:1;stroke-width:0.97523" /><path
   id="37647336"
   class="fil0"
   d="m -287.94032,169.40415 c -168.70856,15.60425 -247.69927,86.79865 -247.69927,201.88 0.9752,115.08135 124.82483,151.16618 126.77522,173.59729 8.77674,101.42763 -44.85892,200.90473 -39.98296,302.33236 3.90078,80.94705 63.38761,153.1167 67.28839,235.039 2.92558,85.8234 -107.27134,201.88 -74.11474,281.8518 58.51163,140.4383 238.92251,20.4806 252.57523,99.4771 11.70233,70.2191 -188.21243,36.0848 -273.05431,61.4417 -103.37055,30.2333 -208.6915,58.516 -308.16128,100.4524 -111.17211,45.8375 -215.51787,105.3287 -321.81396,160.9188 -73.1396,38.0354 -172.6094,50.7139 -215.5179,120.933 -83.8667,140.4383 -86.7923,315.0108 -140.4279,470.0781 -49.7349,143.364 -116.0481,295.5055 -167.7334,422.29 33.1566,-323.7882 113.1225,-983.0678 162.8574,-1025.0042 172.6093,-149.2157 408.6063,-155.0673 608.52102,-270.1486 49.73489,-29.258 144.3287,-78.0213 127.7504,-132.6362 -14.62791,-48.7632 -33.15659,-94.6007 -54.61086,-142.3888 -21.45426,-46.8127 -88.74265,-46.8127 -133.60157,-74.1201 -38.03256,-22.4312 -101.42019,-320.86245 15.6031,-416.43849 18.52869,-14.62899 67.28839,56.56541 72.16436,34.1343 30.23101,-140.43826 16.57829,-192.12734 76.06512,-329.6398 62.41242,-144.33932 252.57524,-317.93661 467.11791,-274.04966 z"
   style="fill:#364152;fill-opacity:1;stroke-width:0.97523" /><path
   id="37647424"
   class="fil0 str2"
   d="m -361.07987,3906.6222 c 1.95039,8.7774 16.5783,13.6538 13.65272,21.4559 -5.85117,12.6784 -29.25582,31.2085 -17.5535,39.0106 12.67753,8.7774 36.08218,-10.7279 38.03257,-25.3569 1.95039,-20.4806 -15.6031,-38.0354 -29.25582,-51.6891 -4.87597,-4.8763 -6.82636,10.7279 -4.87597,16.5795 z"
   style="fill:#000000;stroke:#000000;stroke-width:2.92569;stroke-linejoin:round" /><path
   id="37647512"
   class="fil0"
   d="m -471.27679,4285.0253 c 81.9163,-33.159 337.41711,-84.8481 239.89772,126.7846 -27.30543,60.4664 -79.96591,136.5372 -146.2791,134.5866 -52.66047,-0.9752 62.41242,-85.8234 78.01552,-136.5372 41.93334,-132.6361 -247.69926,-94.6007 -171.63414,-124.834 z"
   style="fill:#000000;stroke-width:0.97523" /><path
   id="37647600"
   class="fil0"
   d="m 492.21484,3838.3536 c -43.88373,111.1803 -84.84188,177.4984 -219.41864,239.9154 -56.56125,26.3322 -146.27909,69.2439 -284.756636,100.4524 -94.593814,21.4558 -218.443444,-4.8764 -310.111674,-14.629 -41.93334,-3.9011 -144.32871,35.1095 -196.98918,36.0848 -230.14577,0.9753 -444.68844,-28.2827 -618.27301,-279.9012 -194.0635,-279.9013 -39.9829,-697.315 -17.5534,-957.7109 18.5286,-212.608 -34.1318,-256.4949 39.9829,-456.4244 5.8512,-17.5548 74.1147,-32.1837 71.1892,12.6785 -35.107,599.7884 500.27446,395.9578 503.20004,463.2512 4.87597,120.9329 -334.49152,-1.9506 -384.22641,147.2651 -23.40466,69.2439 -6.82636,239.9153 -9.75194,281.8518 -7.80155,114.1061 99.46978,222.3605 29.25582,391.0815 -97.51941,232.1132 297.43415,292.5797 549.03419,285.7529 251.60004,-6.8269 588.04195,-63.3923 627.04971,-214.5585 20.47907,-80.947 -39.98295,-82.8976 -39.98295,-164.8199 0,-81.9223 37.05737,-200.9047 31.2062,-350.1204 -3.90077,-90.6997 -33.15659,-212.6079 -84.84187,-287.7034 -23.40465,-35.1095 -366.67292,-23.4063 -369.59851,-80.947 -3.90077,-82.8976 473.94426,63.3923 510.02644,-211.6327 24.37985,-179.4488 -2.92558,-287.7033 50.71008,-304.2828 176.51011,-55.5902 38.03257,238.94 62.41242,500.3112 23.40465,261.3712 105.32094,755.8309 61.43722,864.0854 z"
   style="fill:#364152;fill-opacity:1;stroke-width:0.97523" />
</svg>
